<?xml version="1.0" encoding="iso-8859-1"?>
<!-- Generator: Adobe Illustrator 19.0.0, SVG Export Plug-In . SVG Version: 6.00 Build 0)  -->
<svg version="1.1" xmlns="http://www.w3.org/2000/svg" xmlns:xlink="http://www.w3.org/1999/xlink" x="0px" y="0px"
	 viewBox="0 0 512 512" style="enable-background:new 0 0 512 512;" xml:space="preserve">
<g>
	<g>
		<path d="M504.5,272.548h-24.564v-56.629c0-4.142-3.358-7.5-7.5-7.5h-40.597v-32.581c0-4.142-3.358-7.5-7.5-7.5
			c-4.142,0-7.5,3.358-7.5,7.5v32.581h-17.064V151.79c0-4.142-3.358-7.5-7.5-7.5h-48.613v-32.581c0-2.278-1.036-4.433-2.815-5.856
			L303.581,76.04V55.597c0-4.142-3.358-7.5-7.5-7.5c-4.142,0-7.5,3.358-7.5,7.5v48.613H263.5V39.567c0-0.001,0-0.003,0-0.005V7.5
			c0-4.142-3.358-7.5-7.5-7.5c-4.142,0-7.5,3.358-7.5,7.5v28.958l-45.9,45.9c-1.407,1.406-2.197,3.314-2.197,5.303v56.629h-17.064
			v-32.581c0-4.142-3.358-7.5-7.5-7.5c-4.142,0-7.5,3.358-7.5,7.5v32.581h-24.564c-4.142,0-7.5,3.358-7.5,7.5v56.629H119.21v-8.532
			c0-4.142-3.358-7.5-7.5-7.5H39.564c-4.142,0-7.5,3.358-7.5,7.5v72.661H7.5c-4.142,0-7.5,3.358-7.5,7.5c0,4.142,3.358,7.5,7.5,7.5
			h11.397l9.528,19.056c4.012,8.024,12.077,13.008,21.048,13.008h121.731l17.544,35.088c4.011,8.024,12.076,13.009,21.048,13.009
			h92.409c8.972,0,17.037-4.985,21.047-13.008l17.544-35.088h121.731c8.971,0,17.036-4.984,21.048-13.008l9.528-19.056H504.5
			c4.142,0,7.5-3.358,7.5-7.5C512,275.907,508.642,272.548,504.5,272.548z M464.936,223.419v49.129h-89.21v-49.129H464.936z
			 M303.58,95.25l25.081,20.064v52.509c0,4.142,3.358,7.5,7.5,7.5c4.142,0,7.5-3.358,7.5-7.5v-8.532h41.113v49.129h-16.549
			c-4.142,0-7.5,3.358-7.5,7.5v56.629h-17.064v-72.66c0-4.142-3.358-7.5-7.5-7.5c-4.142,0-7.5,3.358-7.5,7.5v72.66H303.58V95.25z
			 M288.581,119.209v153.339h-41.113V119.209H288.581z M248.5,57.671v46.539h-8.532c-4.142,0-7.5,3.358-7.5,7.5v160.839h-17.064
			V90.768h-0.001L248.5,57.671z M200.403,159.291v113.258h-17.064V215.92c0-4.142-3.358-7.5-7.5-7.5h-24.564v-49.129H200.403z
			 M47.064,207.387h57.145v24.564c0,4.142,3.358,7.5,7.5,7.5c4.142,0,7.5-3.358,7.5-7.5v-8.532h49.129v49.129h-49.129v-8.532
			c0-4.142-3.358-7.5-7.5-7.5c-4.142,0-7.5,3.358-7.5,7.5v8.532H47.064V207.387z M309.835,347.994
			c-1.454,2.909-4.378,4.716-7.631,4.716h-92.409c-3.253,0-6.177-1.807-7.631-4.716l-14.19-28.38h136.052L309.835,347.994z
			 M470.159,299.896c-1.455,2.909-4.379,4.716-7.632,4.716H49.473c-3.253,0-6.177-1.807-7.632-4.716l-6.174-12.348h440.666
			L470.159,299.896z"/>
	</g>
</g>
<g>
	<g>
		<path d="M256,384.774c-4.142,0-7.5,3.358-7.5,7.5V504.5c0,4.142,3.358,7.5,7.5,7.5c4.142,0,7.5-3.358,7.5-7.5V392.274
			C263.5,388.132,260.142,384.774,256,384.774z"/>
	</g>
</g>
<g>
	<g>
		<path d="M296.081,440.887c-4.142,0-7.5,3.358-7.5,7.5v16.033c0,4.142,3.358,7.5,7.5,7.5c4.142,0,7.5-3.358,7.5-7.5v-16.033
			C303.581,444.245,300.223,440.887,296.081,440.887z"/>
	</g>
</g>
<g>
	<g>
		<path d="M296.081,384.774c-4.142,0-7.5,3.358-7.5,7.5v24.048c0,4.142,3.358,7.5,7.5,7.5c4.142,0,7.5-3.358,7.5-7.5v-24.048
			C303.581,388.132,300.223,384.774,296.081,384.774z"/>
	</g>
</g>
<g>
	<g>
		<path d="M215.92,440.887c-4.142,0-7.5,3.358-7.5,7.5v16.033c0,4.142,3.358,7.5,7.5,7.5c4.142,0,7.5-3.358,7.5-7.5v-16.033
			C223.42,444.245,220.062,440.887,215.92,440.887z"/>
	</g>
</g>
<g>
	<g>
		<path d="M215.92,384.774c-4.142,0-7.5,3.358-7.5,7.5v24.048c0,4.142,3.358,7.5,7.5,7.5c4.142,0,7.5-3.358,7.5-7.5v-24.048
			C223.42,388.132,220.062,384.774,215.92,384.774z"/>
	</g>
</g>
</svg>
