<?xml version="1.0" encoding="utf-8"?>
<!-- Generator: Adobe Illustrator 16.0.0, SVG Export Plug-In . SVG Version: 6.00 Build 0)  -->
<svg version="1.1"  xmlns="http://www.w3.org/2000/svg" xmlns:xlink="http://www.w3.org/1999/xlink" x="0px" y="0px"
	 width="16px" height="16px" viewBox="0 0 16 16" enable-background="new 0 0 16 16" xml:space="preserve">
<g>
	<path fill="#131112" d="M8.244,11.594v-1.356l2.092-1.673c0.036,0.201,0.061,0.399,0.061,0.584
		C10.396,10.409,9.454,11.439,8.244,11.594L8.244,11.594z M5.479,9.148c0-0.185,0.023-0.383,0.061-0.584l2.09,1.673v1.356
		C6.421,11.439,5.479,10.409,5.479,9.148L5.479,9.148z M8.244,6.974V4.278c0.317,0.459,0.727,1.089,1.103,1.777L8.244,6.974z
		 M8.244,7.774l1.394-1.161c0.212,0.43,0.396,0.869,0.532,1.295L8.244,9.45V7.774z M7.63,7.774V9.45L5.705,7.909
		C5.84,7.482,6.026,7.043,6.237,6.613L7.63,7.774z M7.63,6.974L6.528,6.055C6.904,5.367,7.313,4.737,7.63,4.278V6.974z M7.695,3.139
		C7.58,3.287,4.864,6.792,4.864,9.148c0,1.599,1.217,2.902,2.766,3.061v0.953c0,0.17,0.137,0.307,0.307,0.307
		s0.307-0.137,0.307-0.307v-0.953c1.55-0.158,2.766-1.462,2.766-3.061c0-2.356-2.714-5.861-2.83-6.009
		C8.062,2.989,7.812,2.989,7.695,3.139"/>
	<path fill="#131112" d="M14.315,8.726c-0.178,0.251-0.361,0.51-0.441,0.804c-0.08,0.306-0.051,0.63-0.022,0.943
		c0.029,0.332,0.057,0.646-0.058,0.846c-0.119,0.205-0.408,0.338-0.714,0.479c-0.283,0.13-0.577,0.266-0.797,0.485
		s-0.355,0.514-0.486,0.797c-0.141,0.306-0.273,0.595-0.479,0.714c-0.201,0.114-0.515,0.087-0.846,0.058
		c-0.314-0.029-0.638-0.058-0.943,0.022c-0.294,0.08-0.553,0.264-0.804,0.441c-0.278,0.196-0.542,0.382-0.788,0.382
		c-0.247,0-0.51-0.186-0.788-0.382c-0.251-0.178-0.51-0.361-0.804-0.441c-0.15-0.039-0.305-0.052-0.459-0.052
		c-0.162,0-0.325,0.014-0.484,0.029c-0.333,0.029-0.647,0.057-0.846-0.058c-0.205-0.119-0.338-0.408-0.479-0.714
		c-0.131-0.283-0.266-0.577-0.486-0.797c-0.22-0.22-0.513-0.355-0.796-0.486C2.49,11.656,2.2,11.523,2.082,11.318
		c-0.116-0.2-0.088-0.515-0.058-0.846C2.053,10.159,2.081,9.835,2,9.529C1.921,9.235,1.738,8.977,1.561,8.726
		C1.363,8.447,1.177,8.184,1.177,7.938c0-0.247,0.186-0.51,0.384-0.788C1.738,6.898,1.921,6.64,2,6.346
		c0.082-0.306,0.053-0.63,0.025-0.943C1.994,5.07,1.967,4.756,2.082,4.557C2.201,4.352,2.49,4.218,2.795,4.078
		c0.283-0.131,0.576-0.266,0.797-0.486c0.22-0.22,0.355-0.513,0.485-0.796C4.218,2.49,4.352,2.2,4.557,2.082
		C4.755,1.965,5.07,1.994,5.403,2.024C5.716,2.053,6.04,2.082,6.347,2C6.64,1.921,6.898,1.738,7.15,1.561
		c0.278-0.198,0.541-0.384,0.788-0.384c0.246,0,0.51,0.186,0.788,0.384C8.977,1.738,9.235,1.921,9.529,2
		c0.306,0.083,0.629,0.053,0.943,0.025c0.333-0.029,0.646-0.058,0.846,0.058c0.205,0.119,0.338,0.408,0.479,0.713
		c0.13,0.283,0.266,0.576,0.485,0.797c0.22,0.22,0.514,0.355,0.797,0.485c0.306,0.141,0.595,0.274,0.714,0.479
		c0.114,0.199,0.087,0.513,0.058,0.846c-0.028,0.313-0.058,0.637,0.022,0.944c0.08,0.293,0.264,0.552,0.441,0.803
		c0.196,0.278,0.382,0.541,0.382,0.788C14.697,8.184,14.512,8.447,14.315,8.726L14.315,8.726z M14.815,9.08
		c0.233-0.327,0.497-0.701,0.497-1.143c0-0.442-0.264-0.815-0.497-1.143c-0.151-0.217-0.296-0.42-0.347-0.608
		c-0.054-0.201-0.03-0.458-0.006-0.729c0.037-0.413,0.075-0.84-0.137-1.208c-0.217-0.374-0.627-0.563-0.99-0.729
		c-0.244-0.113-0.476-0.22-0.618-0.362c-0.143-0.143-0.249-0.375-0.362-0.62C12.188,2.176,12,1.766,11.626,1.55
		c-0.368-0.213-0.795-0.175-1.209-0.138c-0.272,0.024-0.528,0.047-0.729-0.006C9.501,1.356,9.297,1.211,9.08,1.059
		C8.753,0.826,8.379,0.562,7.938,0.562c-0.442,0-0.815,0.263-1.143,0.497c-0.217,0.152-0.42,0.297-0.608,0.347
		c-0.201,0.054-0.458,0.03-0.729,0.006C5.045,1.375,4.618,1.337,4.249,1.55C3.875,1.766,3.686,2.176,3.52,2.538
		C3.407,2.783,3.3,3.014,3.158,3.157C3.015,3.3,2.783,3.406,2.538,3.52C2.176,3.686,1.766,3.875,1.55,4.249
		C1.337,4.617,1.375,5.044,1.412,5.458c0.024,0.272,0.047,0.529-0.006,0.729c-0.05,0.188-0.194,0.392-0.347,0.608
		C0.826,7.123,0.562,7.496,0.562,7.938c0,0.441,0.263,0.815,0.497,1.143c0.152,0.217,0.297,0.421,0.347,0.607
		c0.054,0.2,0.03,0.457,0.006,0.729c-0.037,0.414-0.075,0.841,0.138,1.209C1.766,12,2.176,12.188,2.538,12.354
		c0.245,0.114,0.476,0.221,0.619,0.363C3.3,12.86,3.406,13.092,3.52,13.336c0.167,0.362,0.355,0.773,0.729,0.989
		c0.369,0.213,0.796,0.174,1.209,0.138c0.271-0.025,0.528-0.048,0.729,0.006c0.188,0.051,0.392,0.195,0.608,0.347
		c0.328,0.233,0.701,0.497,1.143,0.497c0.441,0,0.815-0.264,1.143-0.497c0.217-0.151,0.421-0.296,0.607-0.347
		c0.2-0.054,0.457-0.031,0.729-0.006c0.412,0.037,0.841,0.076,1.209-0.137c0.374-0.217,0.562-0.627,0.729-0.99
		c0.114-0.244,0.221-0.476,0.363-0.618s0.374-0.249,0.618-0.362c0.362-0.167,0.773-0.355,0.989-0.729
		c0.213-0.367,0.175-0.795,0.138-1.209c-0.024-0.271-0.048-0.529,0.006-0.729C14.52,9.501,14.664,9.297,14.815,9.08"/>
</g>
</svg>
