<?xml version="1.0" encoding="utf-8"?>
<!-- Generator: Adobe Illustrator 16.0.0, SVG Export Plug-In . SVG Version: 6.00 Build 0)  -->
<!DOCTYPE svg PUBLIC "-//W3C//DTD SVG 1.1//EN" "http://www.w3.org/Graphics/SVG/1.1/DTD/svg11.dtd">
<svg version="1.1" id="Layer_1" xmlns="http://www.w3.org/2000/svg" xmlns:xlink="http://www.w3.org/1999/xlink" x="0px" y="0px"
	 width="16px" height="16px" viewBox="0 0 16 16" enable-background="new 0 0 16 16" xml:space="preserve">
<g>
	<g>
		<defs>
			<rect id="SVGID_1_" x="0.338" y="0.604" width="15.324" height="15.25"/>
		</defs>
		<clipPath id="SVGID_2_">
			<use xlink:href="#SVGID_1_"  overflow="visible"/>
		</clipPath>
		<path clip-path="url(#SVGID_2_)" fill="#000002" d="M15.178,12.024l-2.207-2.209c-0.297-0.295-0.695-0.459-1.119-0.459
			c-0.441,0-0.859,0.176-1.174,0.49l-0.861,0.859C9.15,10.335,8.262,9.825,7.34,8.903C6.42,7.981,5.909,7.097,5.536,6.425l0.86-0.86
			c0.64-0.641,0.653-1.669,0.029-2.292L4.217,1.065c-0.295-0.297-0.693-0.46-1.119-0.46c-0.432,0-0.84,0.166-1.154,0.469
			C1.755,1.226,0.804,2.066,0.449,3.798c-0.497,2.425,0.645,4.757,3.938,8.054c3.679,3.678,6.819,3.963,7.694,3.963
			c0.184,0,0.293-0.01,0.322-0.014c1.715-0.201,2.33-0.965,2.781-1.52C15.764,13.56,15.764,12.612,15.178,12.024L15.178,12.024z
			 M14.445,13.687c-0.422,0.523-0.82,1.018-2.152,1.174c0,0-0.072,0.008-0.211,0.008c-0.781,0-3.604-0.266-7.025-3.688
			C2.02,8.144,0.955,6.059,1.378,3.988c0.31-1.511,1.131-2.153,1.163-2.177l0.028-0.021l0.024-0.025
			C2.731,1.628,2.91,1.553,3.099,1.553c0.172,0,0.331,0.064,0.447,0.182l2.209,2.208c0.254,0.253,0.241,0.681-0.029,0.952
			L4.752,5.867L4.736,5.884C4.483,6.164,4.512,6.541,4.652,6.787c0.403,0.728,0.955,1.724,2.017,2.786
			c1.059,1.059,2.054,1.609,2.78,2.014c0.072,0.039,0.223,0.107,0.41,0.107c0.221,0,0.424-0.094,0.576-0.264l0.912-0.912
			c0.137-0.139,0.314-0.213,0.504-0.213c0.172,0,0.332,0.064,0.449,0.182l2.205,2.207C14.789,12.976,14.672,13.405,14.445,13.687
			L14.445,13.687z M14.445,13.687"/>
	</g>
	<path fill="#000002" d="M9.594,2.928c0.816,0.094,1.775,0.587,2.445,1.256c0.676,0.677,1.17,1.646,1.26,2.469
		c0.027,0.242,0.232,0.423,0.471,0.423c0.016,0,0.035-0.001,0.053-0.003c0.26-0.028,0.447-0.262,0.418-0.522
		c-0.111-1.041-0.699-2.205-1.531-3.037c-0.824-0.825-1.977-1.41-3.006-1.529c-0.26-0.03-0.496,0.157-0.525,0.417
		C9.148,2.663,9.336,2.897,9.594,2.928L9.594,2.928z M9.594,2.928"/>
	<path fill="#000002" d="M9.152,4.914c0.439,0.05,1.049,0.377,1.449,0.776c0.402,0.404,0.73,1.019,0.779,1.465
		c0.027,0.242,0.23,0.422,0.471,0.422c0.016,0,0.035-0.001,0.051-0.002c0.26-0.029,0.449-0.263,0.42-0.523
		c-0.08-0.76-0.588-1.568-1.051-2.032c-0.459-0.459-1.26-0.961-2.012-1.048C9,3.941,8.766,4.128,8.736,4.388
		C8.705,4.648,8.893,4.884,9.152,4.914L9.152,4.914z M9.152,4.914"/>
</g>
</svg>
